<svg id="visual" viewBox="0 0 3440 1440" width="3440" height="1440" xmlns="http://www.w3.org/2000/svg" xmlns:xlink="http://www.w3.org/1999/xlink" version="1.1"><path d="M0 419L52.2 404.5C104.3 390 208.7 361 312.8 387.3C417 413.7 521 495.3 625.2 512.2C729.3 529 833.7 481 938 452.2C1042.3 423.3 1146.7 413.7 1251 411.3C1355.3 409 1459.7 414 1563.8 428.5C1668 443 1772 467 1876.2 483.7C1980.3 500.3 2084.7 509.7 2189 473.7C2293.3 437.7 2397.7 356.3 2502 346.8C2606.3 337.3 2710.7 399.7 2814.8 397.2C2919 394.7 3023 327.3 3127.2 312.8C3231.3 298.3 3335.7 336.7 3387.8 355.8L3440 375L3440 0L3387.8 0C3335.7 0 3231.3 0 3127.2 0C3023 0 2919 0 2814.8 0C2710.7 0 2606.3 0 2502 0C2397.7 0 2293.3 0 2189 0C2084.7 0 1980.3 0 1876.2 0C1772 0 1668 0 1563.8 0C1459.7 0 1355.3 0 1251 0C1146.7 0 1042.3 0 938 0C833.7 0 729.3 0 625.2 0C521 0 417 0 312.8 0C208.7 0 104.3 0 52.2 0L0 0Z" fill="#0e191e"></path><path d="M0 577L52.2 569.8C104.3 562.7 208.7 548.3 312.8 565.2C417 582 521 630 625.2 661.2C729.3 692.3 833.7 706.7 938 704.2C1042.3 701.7 1146.7 682.3 1251 677.5C1355.3 672.7 1459.7 682.3 1563.8 692C1668 701.7 1772 711.3 1876.2 718.5C1980.3 725.7 2084.7 730.3 2189 706.3C2293.3 682.3 2397.7 629.7 2502 632.2C2606.3 634.7 2710.7 692.3 2814.8 658.7C2919 625 3023 500 3127.2 461.5C3231.3 423 3335.7 471 3387.8 495L3440 519L3440 373L3387.8 353.8C3335.7 334.7 3231.3 296.3 3127.2 310.8C3023 325.3 2919 392.7 2814.8 395.2C2710.7 397.7 2606.3 335.3 2502 344.8C2397.7 354.3 2293.3 435.7 2189 471.7C2084.7 507.7 1980.3 498.3 1876.2 481.7C1772 465 1668 441 1563.8 426.5C1459.7 412 1355.3 407 1251 409.3C1146.7 411.7 1042.3 421.3 938 450.2C833.7 479 729.3 527 625.2 510.2C521 493.3 417 411.7 312.8 385.3C208.7 359 104.3 388 52.2 402.5L0 417Z" fill="#152a32"></path><path d="M0 750L52.2 752.3C104.3 754.7 208.7 759.3 312.8 788.2C417 817 521 870 625.2 920.5C729.3 971 833.7 1019 938 1021.3C1042.3 1023.7 1146.7 980.3 1251 963.5C1355.3 946.7 1459.7 956.3 1563.8 958.7C1668 961 1772 956 1876.2 965.5C1980.3 975 2084.7 999 2189 958.3C2293.3 917.7 2397.7 812.3 2502 817.2C2606.3 822 2710.7 937 2814.8 917.7C2919 898.3 3023 744.7 3127.2 701.5C3231.3 658.3 3335.7 725.7 3387.8 759.3L3440 793L3440 517L3387.8 493C3335.7 469 3231.3 421 3127.2 459.5C3023 498 2919 623 2814.8 656.7C2710.7 690.3 2606.3 632.7 2502 630.2C2397.7 627.7 2293.3 680.3 2189 704.3C2084.7 728.3 1980.3 723.7 1876.2 716.5C1772 709.3 1668 699.7 1563.8 690C1459.7 680.3 1355.3 670.7 1251 675.5C1146.7 680.3 1042.3 699.7 938 702.2C833.7 704.7 729.3 690.3 625.2 659.2C521 628 417 580 312.8 563.2C208.7 546.3 104.3 560.7 52.2 567.8L0 575Z" fill="#264855"></path><path d="M0 1254L52.2 1261.2C104.3 1268.3 208.7 1282.7 312.8 1273C417 1263.3 521 1229.7 625.2 1234.5C729.3 1239.3 833.7 1282.7 938 1297.2C1042.3 1311.7 1146.7 1297.3 1251 1280.5C1355.3 1263.7 1459.7 1244.3 1563.8 1229.8C1668 1215.3 1772 1205.7 1876.2 1208C1980.3 1210.3 2084.7 1224.7 2189 1243.8C2293.3 1263 2397.7 1287 2502 1294.3C2606.3 1301.7 2710.7 1292.3 2814.8 1273.2C2919 1254 3023 1225 3127.2 1220.2C3231.3 1215.3 3335.7 1234.7 3387.8 1244.3L3440 1254L3440 791L3387.8 757.3C3335.7 723.7 3231.3 656.3 3127.2 699.5C3023 742.7 2919 896.3 2814.8 915.7C2710.7 935 2606.3 820 2502 815.2C2397.7 810.3 2293.3 915.7 2189 956.3C2084.7 997 1980.3 973 1876.2 963.5C1772 954 1668 959 1563.8 956.7C1459.7 954.3 1355.3 944.7 1251 961.5C1146.7 978.3 1042.3 1021.7 938 1019.3C833.7 1017 729.3 969 625.2 918.5C521 868 417 815 312.8 786.2C208.7 757.3 104.3 752.7 52.2 750.3L0 748Z" fill="#152a32"></path><path d="M0 1441L52.2 1441C104.3 1441 208.7 1441 312.8 1441C417 1441 521 1441 625.2 1441C729.3 1441 833.7 1441 938 1441C1042.3 1441 1146.7 1441 1251 1441C1355.3 1441 1459.7 1441 1563.8 1441C1668 1441 1772 1441 1876.2 1441C1980.3 1441 2084.7 1441 2189 1441C2293.3 1441 2397.7 1441 2502 1441C2606.3 1441 2710.7 1441 2814.8 1441C2919 1441 3023 1441 3127.2 1441C3231.3 1441 3335.7 1441 3387.8 1441L3440 1441L3440 1252L3387.8 1242.3C3335.7 1232.7 3231.3 1213.3 3127.2 1218.2C3023 1223 2919 1252 2814.8 1271.2C2710.7 1290.3 2606.3 1299.7 2502 1292.3C2397.7 1285 2293.3 1261 2189 1241.8C2084.7 1222.7 1980.3 1208.3 1876.2 1206C1772 1203.7 1668 1213.3 1563.8 1227.8C1459.7 1242.3 1355.3 1261.7 1251 1278.5C1146.7 1295.3 1042.3 1309.7 938 1295.2C833.7 1280.7 729.3 1237.3 625.2 1232.5C521 1227.7 417 1261.3 312.8 1271C208.7 1280.7 104.3 1266.3 52.2 1259.2L0 1252Z" fill="#0e191e"></path></svg>